<?xml version="1.0" encoding="UTF-8" standalone="no"?>
<!-- Created with Inkscape (http://www.inkscape.org/) -->
<svg xmlns:dc="http://purl.org/dc/elements/1.1/" xmlns:cc="http://creativecommons.org/ns#" xmlns:rdf="http://www.w3.org/1999/02/22-rdf-syntax-ns#" xmlns:svg="http://www.w3.org/2000/svg" xmlns="http://www.w3.org/2000/svg" xmlns:sodipodi="http://sodipodi.sourceforge.net/DTD/sodipodi-0.dtd" xmlns:inkscape="http://www.inkscape.org/namespaces/inkscape" id="svg2" version="1.1" inkscape:version="0.48.5 r10040" width="360.68307" height="403.85522" xml:space="preserve" sodipodi:docname="Logo ville de Lille.svg"><metadata id="metadata8"><rdf:RDF><cc:Work rdf:about=""><dc:format>image/svg+xml</dc:format><dc:type rdf:resource="http://purl.org/dc/dcmitype/StillImage"/><dc:title/></cc:Work></rdf:RDF></metadata><defs id="defs6"><clipPath clipPathUnits="userSpaceOnUse" id="clipPath128"><path d="m 431.642,171.894 194.039,0 0,261.409 -194.039,0 0,-261.409 z" id="path130" inkscape:connector-curvature="0"/></clipPath></defs><sodipodi:namedview pagecolor="#ffffff" bordercolor="#265D78" borderopacity="1" objecttolerance="10" gridtolerance="10" guidetolerance="10" inkscape:pageopacity="0" inkscape:pageshadow="2" inkscape:window-width="1280" inkscape:window-height="669" id="namedview4" showgrid="false" fit-margin-top="0" fit-margin-left="0" fit-margin-right="0" fit-margin-bottom="0" inkscape:zoom="0.31716382" inkscape:cx="141.44215" inkscape:cy="187.8822" inkscape:window-x="0" inkscape:window-y="1" inkscape:window-maximized="1" inkscape:current-layer="g10"/><g id="g10" inkscape:groupmode="layer" inkscape:label="extrait_charte_graphique_ville_de_lille_2016" transform="matrix(1.25,0,0,-1.25,-384.73913,588.02055)"><path d="m 475.645,230.57 -14.669,0 0,125.427 14.669,0 0,-125.427 z" style="fill:#00699E;fill-opacity:1;fill-rule:nonzero;stroke:none" id="path116" inkscape:connector-curvature="0" transform="matrix(2.1316684,0,0,2.1316684,-674.85667,-344.16653)"/><g id="g118" transform="matrix(2.1316684,0,0,2.1316684,458.15559,147.33247)"><path d="m 0,0 -14.66,0 -0.009,104.123 14.66,0 L 0,0 z" style="fill:#00699E;fill-opacity:1;fill-rule:nonzero;stroke:none" id="path120" inkscape:connector-curvature="0"/></g><path d="m 559.452,257.106 -14.669,0 0,92.256 14.669,0 0,-92.256 z" style="fill:#00699E;fill-opacity:1;fill-rule:nonzero;stroke:none" id="path122" inkscape:connector-curvature="0" transform="matrix(2.1316684,0,0,2.1316684,-674.85667,-344.16653)"/><g id="g124" transform="matrix(2.1316684,0,0,2.1316684,-674.85667,-344.16653)"><g id="g126" clip-path="url(#clipPath128)"><g id="g132" transform="translate(541.1456,372.3212)"><path d="m 0,0 c -1.24,0 -1.302,-1.443 -1.302,-3.617 0,-1.926 0.041,-3.768 1.322,-3.768 1.009,0 1.217,1.286 1.217,3.613 C 1.237,-1.642 1.155,0 0,0 m 1.3,-8.228 -0.041,0 c -0.253,-0.82 -0.945,-1.773 -2.458,-1.773 -2.288,0 -3.506,1.729 -3.506,6.209 0,3.723 0.505,6.407 3.296,6.407 0.945,0 1.975,-0.332 2.542,-1.619 l 0.042,0 0,6.576 3.402,0 0,-17.263 -3.277,0 0,1.463 z" style="fill:#265D78;fill-opacity:1;fill-rule:nonzero;stroke:none" id="path134" inkscape:connector-curvature="0"/></g><g id="g136" transform="translate(491.1307,374.6256)"><path d="m 0,0 3.526,0 1.324,-8.847 0.042,0 L 6.235,0 9.638,0 6.825,-11.995 l -4.033,0 L 0,0 z" style="fill:#265D78;fill-opacity:1;fill-rule:nonzero;stroke:none" id="path138" inkscape:connector-curvature="0"/></g><path d="m 502.86,374.626 3.402,0 0,-11.995 -3.402,0 0,11.995 z" style="fill:#265D78;fill-opacity:1;fill-rule:nonzero;stroke:none" id="path140" inkscape:connector-curvature="0"/><path d="m 509.267,379.893 3.401,0 0,-17.263 -3.401,0 0,17.263 z" style="fill:#265D78;fill-opacity:1;fill-rule:nonzero;stroke:none" id="path142" inkscape:connector-curvature="0"/><path d="m 515.671,379.893 3.402,0 0,-17.263 -3.402,0 0,17.263 z" style="fill:#265D78;fill-opacity:1;fill-rule:nonzero;stroke:none" id="path144" inkscape:connector-curvature="0"/><g id="g146" transform="translate(527.1473,370.1249)"><path d="M 0,0 C 0,1.686 -0.213,2.594 -1.153,2.594 -2.267,2.594 -2.456,1.619 -2.456,0 L 0,0 z m -2.456,-2.084 0,-0.733 c 0,-1.862 0.25,-2.771 1.238,-2.771 0.882,0 1.155,0.689 1.24,2.196 l 3.148,0 c -0.063,-2.972 -1.594,-4.413 -4.41,-4.413 -4.282,0 -4.618,3.171 -4.618,6.74 0,3.37 0.923,5.876 4.618,5.876 4.221,0 4.516,-2.815 4.516,-6.895 l -5.732,0 z" style="fill:#265D78;fill-opacity:1;fill-rule:nonzero;stroke:none" id="path148" inkscape:connector-curvature="0"/></g><g id="g150" transform="translate(553.7955,370.1249)"><path d="M 0,0 C 0,1.686 -0.21,2.594 -1.155,2.594 -2.269,2.594 -2.457,1.619 -2.457,0 L 0,0 z m -2.457,-2.084 0,-0.733 c 0,-1.862 0.253,-2.771 1.239,-2.771 0.882,0 1.153,0.689 1.238,2.196 l 3.149,0 c -0.063,-2.972 -1.596,-4.413 -4.408,-4.413 -4.285,0 -4.621,3.171 -4.621,6.74 0,3.37 0.924,5.876 4.621,5.876 4.219,0 4.512,-2.815 4.512,-6.895 l -5.73,0 z" style="fill:#265D78;fill-opacity:1;fill-rule:nonzero;stroke:none" id="path152" inkscape:connector-curvature="0"/></g><path d="m 488.908,250.599 14.669,0 0,70.826 -14.669,0 0,-70.826 z" style="fill:#00699E;fill-opacity:1;fill-rule:nonzero;stroke:none" id="path154" inkscape:connector-curvature="0"/><path d="m 503.577,349.363 -14.669,0 0,-14.669 14.669,0 0,14.669 z" style="fill:#00699E;fill-opacity:1;fill-rule:nonzero;stroke:none" id="path156" inkscape:connector-curvature="0"/><g id="g158" transform="translate(596.3378,314.9068)"><path d="m 0,0 0,12.713 -23.618,0 0,-83.782 23.618,0 0,12.714 -9.274,0 0,22.82 9.274,0 0,12.714 -9.274,0 L -9.274,0 0,0 z" style="fill:#00699E;fill-opacity:1;fill-rule:nonzero;stroke:none" id="path160" inkscape:connector-curvature="0"/></g><path d="m 502.86,379.893 3.402,0 0,-3.388 -3.402,0 0,3.388 z" style="fill:#265D78;fill-opacity:1;fill-rule:nonzero;stroke:none" id="path162" inkscape:connector-curvature="0"/><g id="g164" transform="translate(575.7461,360.924)"><path d="m 0,0 c 0.685,6.938 10.271,6.037 10.271,6.037 l -3.615,4.475 c 0,0 -4.309,0.583 -6.229,-4.324 C 0.398,6.114 0.361,6.017 0.32,5.903 0.293,5.828 0.233,5.779 0.152,5.802 0.092,5.819 0.049,5.87 0.069,5.97 c 0.023,0.116 0.042,0.178 0.062,0.259 1.199,4.866 3.748,8.535 3.748,8.535 l -4.775,6.446 -4.775,-6.446 c 0,0 2.55,-3.669 3.748,-8.535 0.02,-0.081 0.04,-0.143 0.062,-0.259 0.02,-0.1 -0.022,-0.151 -0.083,-0.168 -0.08,-0.023 -0.141,0.026 -0.168,0.101 -0.041,0.114 -0.078,0.211 -0.107,0.285 -1.919,4.907 -6.228,4.324 -6.228,4.324 l -3.616,-4.475 c 0,0 9.586,0.901 10.271,-6.037 L 0,0 z" style="fill:#00699E;fill-opacity:1;fill-rule:nonzero;stroke:none" id="path166" inkscape:connector-curvature="0"/></g></g></g></g></svg>